<svg xmlns="http://www.w3.org/2000/svg" viewBox="0 0 64 64">
  <rect width="64" height="64" fill="#526441"/>
  <g stroke="#b89438" stroke-width="1.2" stroke-linecap="round" stroke-linejoin="round" fill="none">
    <path d="M16 11 H48 M16.5 13 H47.5" />
    <path d="M18 13 L19 14.5 L20 13 L21 14.5 L22 13 L23 14.5 L24 13 L25 14.5 L26 13 L27 14.5 L28 13 L29 14.5 L30 13 L31 14.5 L32 13 L33 14.5 L34 13 L35 14.5 L36 13 L37 14.5 L38 13 L39 14.5 L40 13 L41 14.5 L42 13 L43 14.5 L44 13 L45 14.5 L46 13" />
    <path d="M17 15 L16.5 38 L47 38.5 L47.5 15" />
    <path d="M20 18 H23 V26 H20 Z M28 18 H31 V26 H28 Z M36 18 H39 V26 H36 Z" />
    <path d="M19 30 H26 V36 H19 Z M23 30 V36" />
    <path d="M30 29 H42 V38 H30 Z M33 32 H39 M33 35 H39" />
    <path d="M30 38 H42 M31.5 40 H40.5 M33 42 H39 M34.5 44 H37.5" />
    <path d="M30 38 L27 46 M42 38 L45 46" />
    <path d="M19 39 H25 V44 H19 Z M21 40.5 H23 M21 42.5 H23" />
  </g>
</svg>
